<?xml version="1.0" standalone="no"?>
<!DOCTYPE svg PUBLIC "-//W3C//DTD SVG 20010904//EN"
 "http://www.w3.org/TR/2001/REC-SVG-20010904/DTD/svg10.dtd">
<svg version="1.0" xmlns="http://www.w3.org/2000/svg"
 width="500.000000pt" height="500.000000pt" viewBox="0 0 500.000000 500.000000"
 preserveAspectRatio="xMidYMid meet">
<metadata>
Created by potrace 1.11, written by Peter Selinger 2001-2013
</metadata>
<g transform="translate(0.000000,500.000000) scale(0.100000,-0.100000)"
fill="#000000" stroke="none">
<path d="M0 2500 l0 -2500 2500 0 2500 0 0 2500 0 2500 -2500 0 -2500 0 0
-2500z m3108 1206 c218 -48 388 -136 540 -280 100 -95 163 -181 227 -311 65
-130 101 -263 112 -408 l8 -102 80 -6 c91 -6 137 -24 190 -77 72 -71 75 -84
75 -382 0 -299 -3 -312 -76 -382 l-38 -38 -198 0 -198 0 0 440 0 440 35 0 35
0 0 58 c0 78 -31 220 -69 317 -132 341 -447 593 -806 645 -55 8 -239 10 -595
8 l-515 -4 -95 -28 c-170 -50 -316 -134 -442 -254 -123 -118 -219 -272 -271
-437 -27 -87 -54 -262 -44 -289 5 -11 19 -16 52 -16 l45 0 0 -440 0 -440 -198
0 -199 0 -38 37 c-71 69 -74 87 -75 381 -1 245 0 265 20 309 43 98 128 153
236 153 l61 0 6 103 c32 545 480 990 1027 1020 25 1 268 1 540 1 413 -2 507
-5 568 -18z m-853 -1066 c27 -13 50 -34 66 -63 24 -42 24 -45 24 -302 0 -257
0 -260 -24 -302 -65 -113 -250 -109 -308 7 -22 42 -23 55 -23 295 0 240 1 253
23 295 41 82 152 114 242 70z m1305 -2 c56 -29 81 -77 88 -169 l5 -69 -55 0
-55 0 -6 60 c-6 72 -19 90 -62 90 -58 0 -60 -8 -60 -275 0 -267 2 -275 60
-275 46 0 57 20 63 105 l5 75 55 0 55 0 -5 -83 c-5 -107 -28 -153 -89 -185
-35 -19 -56 -23 -102 -20 -61 5 -95 23 -131 72 -20 26 -21 43 -24 284 -2 141
0 271 3 289 7 40 49 91 90 109 47 20 115 17 165 -8z m-1860 -32 l0 -43 62 -6
c69 -6 102 -26 133 -78 17 -29 20 -56 23 -185 4 -171 -5 -219 -48 -263 -29
-29 -42 -33 -127 -46 -42 -7 -43 -8 -43 -46 l0 -39 -60 0 -60 0 0 39 0 40 -47
6 c-103 12 -156 64 -169 162 -3 30 -4 111 -2 178 4 97 9 130 24 156 25 43 94
79 151 79 l43 0 0 45 0 45 60 0 60 0 0 -44z m842 -116 l3 -160 75 160 74 160
58 0 c32 0 58 -2 58 -5 0 -3 -36 -78 -81 -166 l-80 -161 75 -192 c41 -105 78
-199 82 -208 5 -16 -1 -18 -54 -18 -48 0 -61 4 -67 18 -3 9 -27 71 -52 137
-25 66 -49 124 -53 129 -5 4 -15 -5 -24 -22 -12 -23 -16 -61 -16 -147 l0 -115
-60 0 -60 0 0 375 0 375 60 0 60 0 2 -160z m419 118 c24 -91 79 -334 79 -353
1 -37 17 6 25 65 6 45 38 211 60 308 5 20 11 22 65 22 33 0 60 -3 60 -8 0 -13
-120 -534 -137 -595 -27 -97 -92 -147 -190 -147 l-33 0 0 55 0 55 32 0 c38 0
68 25 68 57 0 19 -133 510 -155 571 -3 9 12 12 55 12 l59 0 12 -42z"/>
<path d="M2126 2534 c-14 -13 -16 -51 -16 -255 0 -147 4 -248 10 -260 15 -28
74 -26 94 3 13 19 16 61 16 253 0 192 -3 234 -16 253 -18 26 -65 30 -88 6z"/>
<path d="M1520 2453 c-35 -12 -40 -35 -40 -178 0 -163 8 -185 66 -185 l34 0 0
185 0 185 -22 -1 c-13 0 -30 -3 -38 -6z"/>
<path d="M1700 2276 l0 -186 34 0 c61 0 66 13 66 179 0 165 -4 178 -63 188
l-37 6 0 -187z"/>
</g>
</svg>
